<svg width="259" height="35" viewBox="0 0 259 35" fill="none" xmlns="http://www.w3.org/2000/svg">
<path d="M165.524 30.4435C165.761 29.0834 167.055 28.1729 168.416 28.4093C172.851 29.1803 177.321 29.694 181.801 29.9513C183.179 30.0307 184.233 31.2127 184.154 32.5909C184.074 33.9689 182.892 35.0224 181.514 34.9435C176.843 34.6753 172.183 34.1389 167.559 33.3351C166.199 33.0987 165.288 31.8037 165.524 30.4435ZM208.662 28.4093C210.022 28.173 211.317 29.0834 211.553 30.4435C211.789 31.8035 210.878 33.0985 209.518 33.3351C204.894 34.1389 200.233 34.6752 195.562 34.9435C194.184 35.0225 193.003 33.9689 192.923 32.5909C192.844 31.2125 193.897 30.0304 195.276 29.9513C199.756 29.694 204.226 29.1803 208.662 28.4093ZM140.331 22.8409C140.797 21.5412 142.228 20.8652 143.528 21.3312L148.886 23.2521C151.007 24.0122 153.144 24.7095 155.294 25.3439C156.618 25.7348 157.375 27.1252 156.985 28.4493C156.594 29.7732 155.203 30.5301 153.879 30.1398C151.638 29.4785 149.41 28.7514 147.2 27.9591L141.84 26.0372C140.541 25.5714 139.865 24.1405 140.331 22.8409ZM233.549 21.3312C234.849 20.8654 236.281 21.5413 236.747 22.8409C237.212 24.1402 236.536 25.5712 235.237 26.0372L229.877 27.9591C227.667 28.7515 225.439 29.4784 223.197 30.1398C221.873 30.5301 220.483 29.773 220.092 28.4493C219.702 27.1251 220.458 25.7345 221.783 25.3439C223.933 24.7095 226.07 24.0122 228.19 23.2521L233.549 21.3312ZM243.873 10.8976C244.443 9.64031 245.925 9.08279 247.182 9.65247L256.693 13.964C257.95 14.5339 258.508 16.015 257.938 17.2726L253.716 26.59C253.146 27.8476 251.663 28.405 250.406 27.8351C249.149 27.265 248.591 25.7837 249.161 24.5265L251.043 20.3712L245.955 22.1954C244.655 22.6613 243.223 21.985 242.757 20.6857C242.291 19.386 242.967 17.9544 244.267 17.4884L248.785 15.8683L245.119 14.2072C243.861 13.6372 243.303 12.1551 243.873 10.8976ZM118.894 15.1564C119.36 13.8567 120.792 13.1807 122.091 13.6466L132.809 17.4884C134.108 17.9545 134.785 19.3861 134.319 20.6857C133.853 21.9848 132.422 22.6607 131.123 22.1954L120.404 18.3527C119.105 17.8867 118.429 16.4558 118.894 15.1564ZM7.25928 13.6466C8.55893 13.1808 9.99064 13.8567 10.4565 15.1564C10.9217 16.4556 10.2457 17.8866 8.94678 18.3527L3.5874 20.2745C2.28796 20.7403 0.856366 20.064 0.390137 18.7648C-0.0757856 17.4651 0.600262 16.0335 1.8999 15.5675L7.25928 13.6466ZM30.0161 5.70227C31.3403 5.31174 32.7309 6.06848 33.1216 7.3927C33.5117 8.71669 32.7551 10.1065 31.4312 10.4972C29.2809 11.1315 27.1442 11.8289 25.0239 12.589L19.6646 14.5109C18.3651 14.9767 16.9335 14.3004 16.4673 13.0011C16.0014 11.7014 16.6774 10.2698 17.9771 9.80383L23.3364 7.88293C25.5468 7.09055 27.7744 6.3636 30.0161 5.70227ZM96.229 7.3927C96.6196 6.06851 98.0093 5.3118 99.3335 5.70227C101.575 6.36363 103.804 7.09051 106.014 7.88293L111.374 9.80383C112.673 10.27 113.349 11.7016 112.883 13.0011C112.417 14.3004 110.985 14.9763 109.686 14.5109L104.327 12.589C102.207 11.829 100.07 11.1315 97.9194 10.4972C96.5953 10.1066 95.8387 8.71683 96.229 7.3927ZM57.6519 0.89856C59.03 0.819854 60.2114 1.87292 60.2905 3.2511C60.3693 4.62912 59.316 5.81046 57.938 5.88977C53.4574 6.14705 48.9879 6.66174 44.5522 7.43274C43.1921 7.66916 41.8973 6.75762 41.6606 5.39758C41.4242 4.0373 42.3355 2.74243 43.6958 2.50598C48.3203 1.70216 52.9807 1.16678 57.6519 0.89856ZM71.6987 0.89856C76.3699 1.1668 81.0303 1.70214 85.6548 2.50598C87.0148 2.74264 87.9263 4.03746 87.6899 5.39758C87.4533 6.75754 86.1584 7.6689 84.7983 7.43274C80.3627 6.66173 75.8931 6.14706 71.4126 5.88977C70.0344 5.81063 68.9813 4.62926 69.0601 3.2511C69.1392 1.87276 70.3204 0.81959 71.6987 0.89856Z" fill="#87BE84"/>
</svg>
