<svg width="259" height="35" viewBox="0 0 259 35" fill="none" xmlns="http://www.w3.org/2000/svg">
<path d="M92.8809 4.74681C92.6443 6.10677 91.3493 7.01716 89.9893 6.78099C85.5537 6.01001 81.0839 5.49629 76.6035 5.239C75.2251 5.15979 74.1718 3.97775 74.251 2.59935C74.3304 1.22115 75.5124 0.167668 76.8906 0.24681C81.5616 0.515055 86.2214 1.05141 90.8457 1.85521C92.2057 2.09184 93.1171 3.38674 92.8809 4.74681ZM49.7432 6.78099C48.383 7.01742 47.0882 6.10694 46.8516 4.74681C46.6152 3.38659 47.5265 2.09173 48.8867 1.85521C53.5112 1.05139 58.1716 0.515032 62.8428 0.246809C64.2208 0.168078 65.4021 1.22138 65.4814 2.59935C65.5606 3.97763 64.5071 5.1596 63.1289 5.239C58.6485 5.49628 54.1787 6.01001 49.7432 6.78099ZM118.074 12.3494C117.608 13.649 116.177 14.3248 114.877 13.8591L109.519 11.9382C107.398 11.1781 105.261 10.4808 103.11 9.84642C101.786 9.45571 101.029 8.06521 101.42 6.74095C101.811 5.41697 103.201 4.6599 104.525 5.05052C106.767 5.71183 108.995 6.43883 111.205 7.23119L116.564 9.15306C117.864 9.61906 118.54 11.0499 118.074 12.3494ZM24.8555 13.8591C23.5558 14.325 22.1241 13.6491 21.6582 12.3493C21.1926 11.0499 21.8686 9.61907 23.168 9.15306L28.5273 7.23118C30.7377 6.43879 32.9662 5.71185 35.208 5.05052C36.5319 4.66049 37.9218 5.41717 38.3125 6.74095C38.7031 8.06508 37.9461 9.45555 36.6221 9.84642C34.4719 10.4807 32.335 11.1782 30.2148 11.9382L24.8555 13.8591ZM14.5313 24.2917C13.9613 25.5492 12.4792 26.1075 11.2217 25.5378L1.71094 21.2263C0.453357 20.6563 -0.104125 19.1753 0.465822 17.9177L4.6875 8.60032C5.25745 7.34273 6.74046 6.78525 7.99805 7.3552C9.25506 7.92532 9.81277 9.4065 9.24317 10.6638L7.36035 14.82L12.4502 12.9949C13.7498 12.5293 15.1816 13.2051 15.6475 14.5046C16.1133 15.8041 15.437 17.2357 14.1377 17.7019L9.61914 19.322L13.2852 20.9831C14.5426 21.553 15.1008 23.0343 14.5313 24.2917ZM139.511 20.0339C139.045 21.3335 137.613 22.0094 136.313 21.5437L125.596 17.7019C124.296 17.236 123.62 15.8043 124.086 14.5046C124.552 13.2054 125.983 12.5293 127.282 12.9949L138.001 16.8376C139.3 17.3037 139.976 18.7347 139.511 20.0339ZM251.146 21.5437C249.846 22.0096 248.414 21.3336 247.948 20.0339C247.483 18.7345 248.159 17.3037 249.458 16.8376L254.817 14.9158C256.117 14.4502 257.549 15.1262 258.015 16.4255C258.481 17.7251 257.804 19.1566 256.505 19.6228L251.146 21.5437ZM228.389 29.488C227.064 29.8787 225.674 29.1219 225.283 27.7976C224.893 26.4734 225.649 25.0838 226.974 24.6931C229.124 24.0588 231.261 23.3613 233.381 22.6013L238.74 20.6794C240.04 20.2139 241.472 20.8898 241.938 22.1892C242.403 23.4887 241.727 24.9203 240.428 25.3865L235.068 27.3074C232.858 28.0997 230.63 28.8267 228.389 29.488ZM162.176 27.7976C161.785 29.1217 160.395 29.8783 159.071 29.488C156.829 28.8267 154.601 28.0998 152.391 27.3074L147.031 25.3865C145.732 24.9205 145.056 23.4888 145.521 22.1892C145.988 20.8898 147.419 20.2136 148.719 20.6794L154.078 22.6013C156.198 23.3614 158.335 24.0588 160.485 24.6931C161.809 25.0839 162.566 26.4736 162.176 27.7976ZM200.753 34.2917C199.375 34.3706 198.193 33.3175 198.114 31.9392C198.035 30.5609 199.088 29.3797 200.467 29.3005C204.947 29.0432 209.417 28.5286 213.853 27.7576C215.213 27.5214 216.508 28.4326 216.744 29.7927C216.981 31.1528 216.069 32.4477 214.709 32.6843C210.085 33.4881 205.424 34.0235 200.753 34.2917ZM186.706 34.2917C182.035 34.0235 177.374 33.4881 172.75 32.6843C171.39 32.4479 170.478 31.153 170.715 29.7927C170.951 28.4326 172.246 27.5211 173.606 27.7576C178.042 28.5286 182.512 29.0433 186.992 29.3005C188.37 29.3799 189.424 30.5611 189.345 31.9392C189.266 33.3174 188.084 34.3705 186.706 34.2917Z" fill="#87BE84"/>
</svg>
