<svg width="20" height="106" viewBox="0 0 20 106" fill="none" xmlns="http://www.w3.org/2000/svg">
<path d="M9.46436 89.3114C9.7755 87.9662 11.1182 87.1273 12.4634 87.4384C13.8084 87.7495 14.6463 89.0923 14.3354 90.4374C13.7389 93.0161 13.0551 95.55 12.2788 98.0223L16.0229 95.8612C17.2186 95.1709 18.7485 95.5807 19.439 96.7762C20.129 97.9718 19.7192 99.5009 18.5239 100.191L9.47998 105.412C8.28444 106.102 6.75643 105.693 6.06592 104.498L0.949707 95.6385C0.259523 94.4429 0.670066 92.9129 1.86572 92.2225C3.06112 91.5329 4.58937 91.9426 5.27979 93.1376L7.41553 96.8368C7.42291 96.8106 7.42873 96.7838 7.43701 96.7577C8.20189 94.3453 8.87543 91.8574 9.46436 89.3114ZM15.4595 55.9344C16.8399 55.9581 17.9401 57.096 17.9165 58.4764C17.8252 63.8011 17.5253 69.1879 16.9585 74.5116C16.8119 75.8841 15.5811 76.8783 14.2085 76.7323C12.8359 76.5861 11.8411 75.3549 11.9868 73.9823C12.5359 68.8253 12.8283 63.5877 12.9175 58.3905C12.9414 57.0103 14.0793 55.911 15.4595 55.9344ZM13.4771 24.326C14.8484 24.1666 16.089 25.149 16.2485 26.5204C16.8294 31.5119 17.3076 36.8782 17.6069 42.4579C17.6807 43.8365 16.6232 45.0138 15.2446 45.0878C13.8662 45.1615 12.6889 44.1039 12.6147 42.7255C12.3215 37.2579 11.8525 31.9955 11.2827 27.0985C11.1231 25.7271 12.1057 24.4858 13.4771 24.326ZM9.24561 0.953003C10.5893 0.635776 11.9361 1.46769 12.2534 2.8114C12.7867 5.06976 13.3428 7.71848 13.8901 10.6844C14.1404 12.042 13.2429 13.346 11.8853 13.5966C10.5278 13.8467 9.22386 12.949 8.97314 11.5917C8.43876 8.69573 7.89922 6.12811 7.38721 3.95984C7.07007 2.61626 7.90209 1.27041 9.24561 0.953003Z" fill="#87BE84"/>
</svg>
