<svg width="20" height="106" viewBox="0 0 20 106" fill="none" xmlns="http://www.w3.org/2000/svg">
<path d="M10.9921 17.3217C10.681 18.6669 9.33827 19.5058 7.99311 19.1947C6.6481 18.8836 5.81015 17.5408 6.12104 16.1957C6.71754 13.617 7.40134 11.0831 8.17768 8.61076L4.43354 10.7719C3.23791 11.4622 1.70796 11.0524 1.01753 9.85686C0.327485 8.66131 0.737253 7.13223 1.93257 6.44182L10.9765 1.22111C12.1721 0.53087 13.7001 0.939888 14.3906 2.13518L19.5068 10.9946C20.197 12.1902 19.7864 13.7203 18.5908 14.4106C17.3954 15.1002 15.8671 14.6905 15.1767 13.4955L13.041 9.79631C13.0336 9.82252 13.0278 9.84927 13.0195 9.87541C12.2546 12.2878 11.5811 14.7757 10.9921 17.3217ZM4.99702 50.6987C3.61658 50.675 2.51643 49.5371 2.53999 48.1567C2.63133 42.832 2.93119 37.4452 3.49799 32.1215C3.64455 30.749 4.87538 29.7548 6.24799 29.9008C7.62059 30.047 8.61536 31.2782 8.46967 32.6508C7.92062 37.8078 7.62816 43.0454 7.53901 48.2426C7.51511 49.6228 6.37724 50.7222 4.99702 50.6987ZM6.97944 82.3071C5.60809 82.4665 4.36753 81.4841 4.20795 80.1127C3.62711 75.1212 3.14884 69.7549 2.84955 64.1752C2.77579 62.7966 3.83324 61.6193 5.21186 61.5453C6.59031 61.4716 7.76763 62.5292 7.84174 63.9076C8.13502 69.3752 8.60394 74.6376 9.17377 79.5346C9.33336 80.906 8.35077 82.1473 6.97944 82.3071ZM11.2109 105.68C9.86717 105.997 8.52037 105.165 8.20307 103.822C7.66979 101.563 7.11366 98.9146 6.56635 95.9487C6.31613 94.5911 7.21362 93.2871 8.57123 93.0365C9.92867 92.7864 11.2326 93.6841 11.4833 95.0414C12.0177 97.9374 12.5573 100.505 13.0693 102.673C13.3864 104.017 12.5544 105.363 11.2109 105.68Z" fill="#87BE84"/>
</svg>
